<svg xmlns="http://www.w3.org/2000/svg" width="34" height="34" viewBox="0 0 34 34">
    <defs>
        <clipPath id="f48784vapa">
            <path transform="translate(-2.002 -3)" style="fill:none" d="M0 0h26v26H0z"/>
        </clipPath>
    </defs>
    <path style="fill:none" d="M0 0h34v34H0z"/>
    <g data-name="마스크 그룹 150" transform="translate(6.002 7)" style="clip-path:url(#f48784vapa)">
        <g data-name="다각형 1" style="fill:#fff">
            <path d="M23.074 25.25H6.926a3.217 3.217 0 0 1-2.815-1.625 3.217 3.217 0 0 1 0-3.25L12.185 6.38A3.217 3.217 0 0 1 15 4.754c1.175 0 2.228.608 2.815 1.626l8.074 13.996a3.217 3.217 0 0 1 0 3.25 3.217 3.217 0 0 1-2.815 1.624z" style="stroke:none" transform="translate(-4.002 -5)"/>
            <path d="M15 5.504c-.904 0-1.714.468-2.165 1.251L4.76 20.751a2.475 2.475 0 0 0 0 2.5A2.475 2.475 0 0 0 6.927 24.5h16.148c.904 0 1.713-.467 2.165-1.25a2.475 2.475 0 0 0 0-2.5L17.166 6.756A2.474 2.474 0 0 0 15 5.505m0-1.5c1.348 0 2.695.666 3.465 2l8.074 13.996C28.078 22.668 26.153 26 23.074 26H6.926c-3.079 0-5.004-3.332-3.465-5.999l8.074-13.995A3.963 3.963 0 0 1 15 4.004z" style="fill:#a9a9a9;stroke:none" transform="translate(-4.002 -5)"/>
        </g>
        <path data-name="Stroke 9" d="M.643 4.713A1.143 1.143 0 0 1-.5 3.571V.143a1.143 1.143 0 1 1 2.285 0v3.428A1.143 1.143 0 0 1 .643 4.713z" transform="translate(10.355 7.999)" style="fill:#a9a9a9"/>
        <path data-name="Fill 11" d="M2.285 1.143A1.143 1.143 0 1 1 1.143 0a1.143 1.143 0 0 1 1.142 1.143" transform="translate(9.855 13.855)" style="fill:#a9a9a9"/>
    </g>
</svg>
