<svg xmlns="http://www.w3.org/2000/svg" width="34" height="34"><defs><clipPath id="prefix__a"><path transform="translate(-2.002 -3)" d="M0 0h26v26H0z" fill="none"/></clipPath></defs><path d="M0 0h34v34H0z" fill="none"/><g data-name="마스크 그룹 150" transform="translate(6.002 7)" clip-path="url(#prefix__a)"><g data-name="다각형 1" fill="#fff"><path d="M19.072 20.25H2.924a3.217 3.217 0 01-2.815-1.625 3.217 3.217 0 010-3.25L8.183 1.38a3.217 3.217 0 012.815-1.626c1.175 0 2.228.608 2.815 1.626l8.074 13.996a3.217 3.217 0 010 3.25 3.217 3.217 0 01-2.815 1.624z"/><path d="M10.998.504c-.904 0-1.714.468-2.165 1.251L.758 15.751a2.475 2.475 0 000 2.5A2.475 2.475 0 002.925 19.5h16.148c.904 0 1.713-.467 2.165-1.25a2.475 2.475 0 000-2.5L13.164 1.756A2.474 2.474 0 0010.998.505m0-1.5c1.348 0 2.695.666 3.465 2l8.074 13.996C24.076 17.668 22.151 21 19.072 21H2.924c-3.079 0-5.004-3.332-3.465-5.999L7.533 1.006a3.963 3.963 0 013.465-2.002z" fill="#a9a9a9"/></g><path data-name="Stroke 9" d="M10.998 12.712a1.143 1.143 0 01-1.143-1.142V8.142a1.143 1.143 0 112.285 0v3.428a1.143 1.143 0 01-1.142 1.142z" fill="#a9a9a9"/><path data-name="Fill 11" d="M12.14 14.998a1.143 1.143 0 11-1.142-1.143 1.143 1.143 0 011.142 1.143" fill="#a9a9a9"/></g></svg>